<?xml version="1.0" encoding="utf-8"?>
<!-- Generator: Adobe Illustrator 21.1.0, SVG Export Plug-In . SVG Version: 6.00 Build 0)  -->
<svg version="1.1" id="Layer_2" xmlns="http://www.w3.org/2000/svg" xmlns:xlink="http://www.w3.org/1999/xlink" x="0px" y="0px"
	 viewBox="0 0 463.3 294.9" style="enable-background:new 0 0 463.3 294.9;" xml:space="preserve">
<style type="text/css">
	.st0{fill:#1CCFC9;}
	.st1{fill:#D60057;}
</style>
<g>
	<g>
		<path class="st0" d="M95.4,167l27,0.2l0.3-78.4c0.2-22.6,17.1-32.7,33.8-32.7c17.2,0.1,34.1,10.4,33.9,33.1l-1.1,142.3
			c-0.2,22.6-17.1,32.7-33.8,32.7h-0.3c-16.8-0.1-33.8-10.4-33.6-33.1l0.1-3.7l-26.3-0.2"/>
		<path class="st0" d="M95.5,167l-27,0.2l-0.3-78.4C68,66.1,51.1,56,34.4,56C17.2,56.1,0.3,66.4,0.5,89.2l1.1,142.3
			c0.2,22.6,17.1,32.7,33.8,32.7h0.3c16.8-0.1,33.8-10.4,33.6-33.1l-0.1-3.7l26.3-0.2"/>
	</g>
	<rect x="82.2" y="182" class="st0" width="27.4" height="37.9"/>
</g>
<g>
	<path class="st1" d="M95.4,11.2c21.5,0,38.9,17.9,38.9,40c0,0.9-0.1,1.7-0.1,2.5l-7,102.8c0,0.1-0.1,1.1-0.2,1.3
		c-2.1,15.9-15.2,28-31.6,28s-29.5-12.1-31.6-28c0-0.2-0.2-1.2-0.2-1.3l-7-102.8c0,0-0.1-1.7-0.1-2.5C56.5,29.2,73.9,11.2,95.4,11.2
		z"/>
	<path class="st1" d="M101.2,278.7H89.6c-15.4,0-27.9-12.5-27.9-27.9v-10.2c0-15.4,12.5-27.9,27.9-27.9h11.6
		c15.4,0,27.9,12.5,27.9,27.9v10.2C129.1,266.2,116.6,278.7,101.2,278.7z"/>
</g>
<g>
	<path class="st1" d="M267.2,113.3c0,3.8-0.8,7.5-2.3,11.1c-1.6,3.6-3.5,7-5.8,10.2c-2.3,3.2-4.9,6.3-7.6,9.1
		c-2.7,2.9-5.3,5.4-7.7,7.6c-1.7,1.7-3.2,3.2-4.7,4.6c-1.5,1.4-2.8,2.7-3.9,3.9c0.1-0.1,0.6-0.1,1.5-0.2c0.9,0,1.9-0.1,3.2-0.1
		s2.7,0,4.3-0.1c1.6,0,3.2-0.1,4.9-0.1c3.9,0,8.2,0,13-0.1c2.4,0,3.7,1.4,3.7,4.1v8.4c0,1.4-0.3,2.5-0.8,3.2
		c-0.5,0.7-1.5,1.1-2.9,1.1h-43.7c-1.6,0-2.7-0.3-3.2-1c-0.6-0.7-0.9-1.9-0.9-3.7v-7.5c0-1.6,0.1-2.8,0.4-3.7
		c0.3-0.9,0.9-1.8,1.9-2.9c3.7-4.2,7.6-8.3,11.5-12.4c3.9-4,7.5-7.9,10.8-11.6c3.3-3.7,6-7.2,8.1-10.5c2.1-3.3,3.1-6.2,3.1-8.9
		c0-3.4-0.9-5.8-2.8-7.2c-1.9-1.4-4.2-2.1-6.9-2.1c-2.3,0-4.8,0.5-7.6,1.5c-2.8,1-5.4,2.4-7.9,4.1c-0.9,0.6-1.6,0.9-2.2,0.9
		c-0.9,0-1.7-0.7-2.3-2.1l-3.2-7.9c-0.3-0.8-0.4-1.5-0.4-2c0-1.1,0.6-2.1,1.9-3c3.5-2.4,7.2-4.3,11.1-5.8c4-1.5,8.2-2.2,12.8-2.2
		c3.7,0,7,0.6,10,1.7c3,1.1,5.6,2.7,7.8,4.8c2.2,2.1,3.9,4.7,5.1,7.8C266.6,105.7,267.2,109.3,267.2,113.3z"/>
	<path class="st1" d="M340.9,133.4c0,7.5-1,13.9-3.1,19.3c-2.1,5.4-4.8,9.8-8.4,13.4c-3.5,3.5-7.7,6.1-12.5,7.8
		c-4.8,1.7-9.9,2.5-15.4,2.5h-22c-1.1,0-1.9-0.2-2.5-0.7c-0.6-0.5-0.9-1.5-0.9-3.2V94.1c0-1.4,0.2-2.4,0.7-3
		c0.5-0.6,1.4-0.9,2.9-0.9h17.1c6.7,0,12.8,0.7,18.2,2.1c5.4,1.4,10.1,3.8,13.9,7.1c3.9,3.4,6.8,7.8,8.9,13.4
		C339.9,118.3,340.9,125.2,340.9,133.4z M322.5,133.3c0-9.3-2-16-5.9-20.1c-3.9-4.1-9.7-6.1-17.3-6.1h-6.1v52.4h7.7
		c2.7,0,5.3-0.4,7.9-1.2c2.6-0.8,4.9-2.2,7-4.1c2.1-1.9,3.7-4.6,4.9-8C321.9,142.8,322.5,138.5,322.5,133.3z"/>
	<path class="st1" d="M409.9,173.8c0,1.7-0.8,2.5-2.3,2.5h-12.1c-1.3,0-2.2-0.3-2.8-0.9c-0.6-0.6-1-1.5-1.4-2.5l-4.3-14.4h-26.7
		l-4.3,14.9c-0.2,0.8-0.6,1.5-1,2.1c-0.5,0.6-1.2,0.9-2.2,0.9h-12.3c-1.2,0-1.7-0.7-1.7-2c0-0.7,0.1-1.2,0.2-1.5l25.7-79.6
		c0.4-0.9,0.8-1.7,1.4-2.2c0.5-0.6,1.3-0.9,2.3-0.9h11.1c2,0,3.3,0.9,3.9,2.7l26.3,79.1C409.8,172.7,409.9,173.3,409.9,173.8z
		 M382.3,143.5l-6.8-24.5c-0.4-1.4-0.7-2.7-1-3.9c-0.3-1.2-0.6-2.3-0.9-3.4h-0.2c-0.3,1.2-0.6,2.3-0.9,3.5c-0.3,1.2-0.7,2.5-1,3.8
		l-6.8,24.3H382.3z"/>
	<path class="st1" d="M462.8,91.8c0,0.4-0.1,0.9-0.4,1.5l-22.7,46.1v33.5c0,2.2-1,3.4-2.9,3.4h-11.3c-1.9,0-2.9-1.2-2.9-3.6v-32.4
		l-23.7-46.8c-0.2-0.3-0.3-0.7-0.3-1.2c0-1.4,0.7-2.1,2.1-2.1h13.1c2,0,3.4,0.9,4.2,2.6l13.9,30.9h0.2L446,92.7c0.4-0.9,1-1.6,1.6-2
		c0.6-0.4,1.5-0.6,2.5-0.6h10.5c0.6,0,1.2,0.1,1.6,0.4C462.6,90.7,462.8,91.2,462.8,91.8z"/>
</g>
<g>
	<path class="st1" d="M269.2,257.5c0,1.6-0.8,2.4-2.3,2.4h-4.6c-1,0-1.6-0.2-2-0.6c-0.3-0.4-0.5-1-0.5-1.9V200l-15,9.1
		c-0.6,0.3-1,0.5-1.4,0.5c-0.6,0-1.1-0.3-1.3-0.8l-2.1-3.4c-0.3-0.5-0.4-0.9-0.4-1.1c0-0.7,0.4-1.3,1.3-1.7l19-11.7
		c0.6-0.4,1.2-0.7,1.7-0.8c0.5-0.1,1.2-0.2,2.1-0.2h3.3c1.4,0,2.1,0.8,2.1,2.3V257.5z"/>
	<path class="st1" d="M327.6,224.7c0,4.1-0.4,8.2-1.2,12.5c-0.8,4.3-2.2,8.2-4.1,11.7c-1.9,3.5-4.5,6.4-7.6,8.7
		c-3.1,2.3-7.1,3.4-11.7,3.4c-4.7,0-8.6-1.1-11.7-3.4c-3.1-2.2-5.6-5.1-7.5-8.6c-1.9-3.5-3.2-7.4-4-11.6c-0.8-4.2-1.2-8.4-1.2-12.5
		c0-4,0.4-8.2,1.2-12.5c0.8-4.3,2.2-8.2,4.1-11.7c1.9-3.5,4.5-6.4,7.7-8.7c3.2-2.3,7.1-3.4,11.7-3.4c4.7,0,8.6,1.1,11.7,3.4
		c3.1,2.2,5.6,5.1,7.4,8.6c1.9,3.5,3.2,7.4,4,11.6C327.2,216.5,327.6,220.6,327.6,224.7z M317.6,224.8c0-3.1-0.2-6.2-0.6-9.5
		c-0.4-3.3-1.2-6.3-2.3-9.1c-1.1-2.8-2.6-5.1-4.4-6.9c-1.8-1.8-4.2-2.7-7.1-2.7c-3,0-5.4,0.9-7.3,2.7c-1.9,1.8-3.4,4.1-4.4,6.9
		c-1.1,2.8-1.8,5.8-2.2,9.1c-0.4,3.3-0.6,6.4-0.6,9.4c0,3,0.2,6.1,0.6,9.5c0.4,3.3,1.2,6.4,2.2,9.2c1.1,2.8,2.5,5.1,4.4,6.9
		c1.9,1.8,4.3,2.7,7.2,2.7c3,0,5.4-0.9,7.2-2.7c1.9-1.8,3.3-4.1,4.4-6.9c1.1-2.8,1.8-5.8,2.2-9.1
		C317.3,230.9,317.6,227.8,317.6,224.8z"/>
	<path class="st1" d="M362.8,189.9c0.8,0,1.1,0.3,1.1,0.9c0,0.5-0.1,1.1-0.4,1.6l-19.8,43.4h25.5v-16.3c0-0.8,0.2-1.3,0.6-1.6
		c0.4-0.2,0.9-0.4,1.6-0.4h5.1c0.8,0,1.3,0.1,1.6,0.4c0.3,0.3,0.5,0.8,0.5,1.5V258c0,1.3-0.6,1.9-1.9,1.9h-5.4c-1.4,0-2.1-0.7-2.1-2
		v-14.2h-33.5c-1,0-1.6-0.2-1.9-0.7c-0.3-0.4-0.4-1-0.4-1.8v-2.4c0-0.7,0.1-1.4,0.2-1.9c0.1-0.5,0.5-1.3,0.9-2.3l19.8-42.6
		c0.3-0.5,0.6-1,0.9-1.4c0.3-0.4,0.9-0.6,1.7-0.6H362.8z"/>
	<path class="st1" d="M401.1,255.5c0,1.7-0.6,3.1-1.9,4.2c-1.2,1.1-2.7,1.6-4.2,1.6c-1.6,0-3-0.5-4.3-1.5c-1.3-1-1.9-2.4-1.9-4.2
		c0-1.8,0.6-3.2,1.9-4.2c1.2-1,2.7-1.5,4.3-1.5c1.6,0,3,0.5,4.2,1.5C400.5,252.4,401.1,253.7,401.1,255.5z"/>
	<path class="st1" d="M422.1,257.5c0,1.6-0.8,2.4-2.3,2.4h-4.6c-1,0-1.6-0.2-2-0.6c-0.3-0.4-0.5-1-0.5-1.9V200l-15,9.1
		c-0.6,0.3-1,0.5-1.4,0.5c-0.6,0-1.1-0.3-1.3-0.8l-2.1-3.4c-0.3-0.5-0.4-0.9-0.4-1.1c0-0.7,0.4-1.3,1.3-1.7l19-11.7
		c0.6-0.4,1.2-0.7,1.7-0.8c0.5-0.1,1.2-0.2,2.1-0.2h3.3c1.4,0,2.1,0.8,2.1,2.3V257.5z"/>
</g>
</svg>
